<?xml version="1.0" encoding="UTF-8" standalone="no"?>
<svg
   width="209.90277mm"
   height="197.55537mm"
   viewBox="0 0 209.90277 197.55537"
   version="1.1"
   xmlns="http://www.w3.org/2000/svg">
  <g
     transform="translate(42.632374,-13.433394)">
    <path
       d="m 68.492623,55.754375 v 19.434528 c 25.650829,0.15985 49.311277,1.325668 70.989467,3.49885 15.77587,1.581996 27.78831,14.859352 27.78831,30.713487 v 67.35585 c 0,15.85418 -12.01244,29.13168 -27.78831,30.71354 -23.4061,2.34678 -49.1243,3.51814 -77.163078,3.51814 -28.038777,0 -53.756276,-1.17133 -77.163081,-3.51814 -15.775869,-1.582 -27.788305,-14.85936 -27.788305,-30.71354 v -67.35585 c 0,-15.854135 12.012436,-29.131632 27.788305,-30.713487 21.677841,-2.173182 45.338999,-3.338971 70.989471,-3.49885 V 55.754375 C 47.219771,53.097535 40.711374,44.829201 40.711374,35.041029 c 0,-11.933767 9.673872,-21.607635 21.607638,-21.607635 11.933767,0 21.607639,9.673868 21.607639,21.607635 0,9.788172 -6.508397,18.056577 -15.434028,20.713346 z m -82.105498,35.218511 c -9.465733,0.949466 -16.672983,8.915752 -16.672983,18.428354 v 67.35585 c 0,9.51265 7.20725,17.47908 16.672983,18.4284 22.976064,2.30269 48.288221,3.45613 75.931887,3.45613 27.643667,0 52.955468,-1.15341 75.931888,-3.45613 9.46573,-0.94946 16.67298,-8.91575 16.67298,-18.4284 v -67.35585 c 0,-9.512602 -7.20725,-17.479029 -16.67298,-18.428354 -22.97607,-2.302687 -48.288221,-3.456129 -75.931888,-3.456129 -27.643666,0 -52.955471,1.153407 -75.931887,3.456129 z M 62.319012,44.300387 c 5.113867,0 9.260417,-4.14655 9.260417,-9.260417 0,-5.113866 -4.14655,-9.260416 -9.260417,-9.260416 -5.113866,0 -9.260416,4.14655 -9.260416,9.260416 0,5.113867 4.14655,9.260417 9.260416,9.260417 z M 9.384708,109.39489 c 15.465778,-2.24207 33.106077,-3.35963 52.934304,-3.35963 19.828228,0 37.46853,1.11759 52.934298,3.35963 12.14191,1.76112 21.15009,12.16941 21.15009,24.43796 v 18.48767 c 0,12.26856 -9.00818,22.67691 -21.15009,24.43798 -15.465768,2.24208 -33.10607,3.35964 -52.934297,3.35964 -19.828228,0 -37.468527,-1.1176 -52.934305,-3.35964 -12.1419052,-1.76114 -21.150086,-12.16942 -21.150086,-24.43798 v -18.48767 c 0,-12.26855 9.0081808,-22.67691 21.150086,-24.43796 z m 1.772144,12.21915 c -6.070247,0.88057 -10.5752192,6.08542 -10.5752192,12.21917 v 18.48767 c 0,6.13374 4.5049722,11.33863 10.5752192,12.21916 14.838539,2.15113 31.896049,3.23152 51.159832,3.23152 19.263783,0 36.321998,-1.08039 51.159826,-3.23152 6.07025,-0.88057 10.57522,-6.08542 10.57522,-12.21916 v -18.48767 c 0,-6.13375 -4.50497,-11.33864 -10.57522,-12.21917 -14.838528,-2.15113 -31.896043,-3.23151 -51.159826,-3.23151 -19.263783,0 -36.321999,1.08038 -51.159832,3.23151 z m 20.292836,33.81022 c -6.818489,0 -12.347222,-5.52873 -12.347222,-12.34722 0,-6.81849 5.528733,-12.34722 12.347222,-12.34722 6.818488,0 12.347222,5.52873 12.347222,12.34722 0,6.81849 -5.528734,12.34722 -12.347222,12.34722 z m 61.736114,0 c -6.818493,0 -12.347227,-5.52873 -12.347227,-12.34722 0,-6.81849 5.528734,-12.34722 12.347227,-12.34722 6.818478,0 12.347218,5.52873 12.347218,12.34722 0,6.81849 -5.52874,12.34722 -12.347218,12.34722 z"
       style="stroke-width:0.352778" />
  </g>
</svg>
